<?xml version="1.0" encoding="UTF-8"?>
<svg id="Camada_1" data-name="Camada 1" xmlns="http://www.w3.org/2000/svg" viewBox="0 0 1001 809">
  <defs>
    <style>
      .cls-1 {
        fill: #fff;
      }

      .cls-2 {
        fill: #ff353a;
      }

      .cls-3 {
        fill: #e6e6e6;
      }
    </style>
  </defs>
  <path class="cls-1" d="m663,168h-.35c-27.79-62.45-90.38-106-163.15-106s-135.36,43.55-163.15,106h-.35L0,809h1001L663,168Z"/>
  <circle class="cls-1" cx="307.36" cy="49" r="49"/>
  <circle class="cls-1" cx="695.36" cy="49" r="49"/>
  <path class="cls-2" d="m595.02,297.07c-1.95,1.95-4.51,2.93-7.07,2.93s-5.12-.98-7.07-2.93c-3.25-3.25-6.56-6.27-9.91-9.05-12.1-10.08-24.84-17.12-38.17-21.11-18.72-5.63-38.59-5.23-59.48,1.22-1.53.47-3.04.97-4.52,1.49-15.92,5.57-29.08,13.59-37.59,19.57-6.64,4.67-10.45,8.11-10.54,8.19-4.08,3.72-10.4,3.43-14.12-.64s-3.45-10.38.61-14.11c.58-.53,8.9-8.07,22.64-16.44v-62.7c0-10.77,8.73-19.5,19.5-19.5s19.5,8.73,19.5,19.5v45.11c17.82-5.3,40.08-8.16,64-2.36v-42.23c0-10.77,8.73-19.5,19.5-19.5s19.5,8.73,19.5,19.5v59.66c7.75,5.2,15.52,11.56,23.22,19.26,3.9,3.9,3.9,10.24,0,14.14Z"/>
  <path class="cls-2" d="m435.32,346.04l49.44,49.44c8.93,8.93,23.41,8.93,32.34,0l49.44-49.44c14.41-14.41,4.2-39.04-16.17-39.04h-98.88c-20.37,0-30.58,24.63-16.17,39.04Z"/>
  <path class="cls-3" d="m644.42,421.88c1.94,69.12-71.56,179.12-144.06,179.12s-145-110-144.06-179.14c.39.85.92,1.66,1.57,2.4.65.74,5.5,6.15,13.94,13.61,21.6,19.09,66.7,51.6,124.89,53.39,1.67.05,3.34.08,5.01.08,44.6,0,87.68-18.43,128.31-54.87,4.16-3.73,8.3-7.65,12.41-11.76.84-.84,1.51-1.8,1.99-2.83Z"/>
  <path class="cls-2" d="m644.42,421.88c-.48,1.03-1.15,1.99-1.99,2.83-4.11,4.11-8.25,8.03-12.41,11.76-40.63,36.44-83.71,54.87-128.31,54.87-1.67,0-3.34-.03-5.01-.08-58.19-1.79-103.29-34.3-124.89-53.39-8.44-7.46-13.29-12.87-13.94-13.61-.65-.74-1.18-1.55-1.57-2.4-.85-1.81-1.12-3.81-.83-5.73.34-2.24,1.44-4.37,3.27-5.98,4.13-3.66,10.45-3.27,14.1.86.18.2,6.33,7.01,17.21,15.99,5.09,4.2,11.21,8.87,18.24,13.56,22.07,14.73,53.11,29.65,89.21,30.72,38.77,1.15,76.66-13.74,112.93-44.28,6-5.05,11.95-10.53,17.86-16.43,3.9-3.91,10.24-3.91,14.14,0,1.56,1.56,2.5,3.52,2.82,5.55.29,1.94.02,3.95-.83,5.76Z"/>
</svg>