<?xml version="1.0" encoding="UTF-8"?>
<svg id="Camada_1" data-name="Camada 1" xmlns="http://www.w3.org/2000/svg" viewBox="0 0 194.02 218.19">
  <defs>
    <style>
      .cls-1 {
        fill: #ff353a;
      }
    </style>
  </defs>
  <path class="cls-1" d="m191.09,113.08c-1.95,1.95-4.51,2.93-7.07,2.93s-5.12-.98-7.07-2.93c-3.25-3.25-6.56-6.27-9.91-9.05-12.1-10.08-24.84-17.12-38.17-21.11-18.72-5.63-38.59-5.23-59.48,1.22-1.53.47-3.04.97-4.52,1.49-15.92,5.57-29.08,13.59-37.59,19.57-6.64,4.67-10.45,8.11-10.54,8.19-4.08,3.72-10.4,3.43-14.12-.64s-3.45-10.38.61-14.11c.58-.53,8.9-8.07,22.64-16.44V19.5C25.87,8.73,34.6,0,45.37,0s19.5,8.73,19.5,19.5v45.11c17.82-5.3,40.08-8.16,64-2.36V20.02c0-10.77,8.73-19.5,19.5-19.5s19.5,8.73,19.5,19.5v59.66c7.75,5.2,15.52,11.56,23.22,19.26,3.9,3.9,3.9,10.24,0,14.14h0Z"/>
  <path class="cls-1" d="m31.39,162.05l49.44,49.44c8.93,8.93,23.41,8.93,32.34,0l49.44-49.44c14.41-14.41,4.2-39.04-16.17-39.04H47.56c-20.37,0-30.58,24.63-16.17,39.04h0Z"/>
</svg>