<svg width="103" height="105" viewBox="0 0 103 105" fill="none" xmlns="http://www.w3.org/2000/svg">
<path d="M26.9503 17.0408C27.9663 -0.42986 50.7449 -6.39358 60.1919 8.33771C64.4167 14.9257 72.4031 18.0441 79.9742 16.0619C96.9038 11.6295 109.615 31.4504 98.5236 44.9872C93.5635 51.041 93.0657 59.6002 97.2905 66.1882C106.737 80.9195 91.8146 99.1332 75.513 92.7681C68.2228 89.9215 59.9287 92.093 54.9686 98.1469C43.8776 111.684 21.944 103.12 22.96 85.6489C23.4144 77.8358 18.7862 70.6186 11.4959 67.7721C-4.80566 61.407 -3.43852 37.9004 13.491 33.468C21.0622 31.4858 26.4958 24.8539 26.9503 17.0408Z" fill="#3F1315"/>
</svg>
